<svg version="1.0" xmlns="http://www.w3.org/2000/svg" width="92.127" height="65.39" viewBox="0 0 92.127 65.39"><path d="M3.599 61.274l-1.481 3.953c-.036.096-.138.162-.24.162s-.21-.066-.246-.162L.15 61.274a.233.233 0 01-.018-.09c0-.131.108-.257.264-.257.102 0 .204.054.246.162l1.235 3.352 1.235-3.358c.036-.102.15-.155.246-.155a.253.253 0 01.241.346zm2.73 4.08H4.716a.261.261 0 01-.264-.258V61.21c0-.145.114-.258.264-.258h1.613a.255.255 0 110 .51H4.974v1.445h1.355a.254.254 0 110 .509H4.974v1.427h1.355a.256.256 0 110 .511zm3.516.029a.262.262 0 01-.21-.108l-1.349-1.858h-.282v1.709c0 .145-.12.258-.264.258s-.258-.108-.258-.258V61.21a.26.26 0 01.258-.258h1.11a1.25 1.25 0 011.259 1.235c0 .658-.534 1.188-1.188 1.229l1.14 1.565c.03.041.048.097.048.15a.26.26 0 01-.264.252zm-.995-3.915h-.846v1.439h.846a.73.73 0 00.738-.72.73.73 0 00-.738-.719zm2.844 3.657c0 .145-.12.258-.264.258s-.258-.113-.258-.258v-3.946c0-.143.114-.258.258-.258s.264.115.264.258v3.946zm2.97-1.709H13.32v1.709a.264.264 0 01-.264.258.257.257 0 01-.264-.258V61.21c0-.145.114-.258.264-.258h1.607c.156 0 .264.119.264.258a.257.257 0 01-.264.252H13.32v1.445h1.343c.156 0 .264.119.264.258a.255.255 0 01-.263.251zm1.836 1.709c0 .145-.12.258-.264.258s-.258-.113-.258-.258v-3.946c0-.143.114-.258.258-.258s.264.115.264.258v3.946zm4.187-.12c-.228.169-.786.378-1.325.378-.456 0-.936-.198-1.295-.54-.294-.287-.648-.814-.648-1.697 0-.875.348-1.402.648-1.684.36-.342.839-.546 1.289-.546.582 0 1.098.269 1.283.479a.25.25 0 01.072.174c0 .155-.108.271-.258.271-.072 0-.126-.03-.192-.085a1.538 1.538 0 00-.888-.317c-.57 0-1.421.462-1.421 1.715 0 1.247.846 1.716 1.445 1.716.354 0 .762-.156.996-.294a.233.233 0 01.138-.042c.156 0 .27.113.27.258a.255.255 0 01-.114.214zm4.115.378a.269.269 0 01-.252-.162l-.324-.815H22.2l-.324.822a.277.277 0 01-.246.155.25.25 0 01-.258-.246c0-.036.006-.071.018-.101l1.583-3.946a.268.268 0 01.24-.162c.108 0 .21.06.246.162l1.583 3.946c.012.029.018.06.018.089a.26.26 0 01-.258.258zm-.785-1.487l-.81-2.021-.804 2.021h1.614zm3.498-2.434h-.864v3.663c0 .145-.12.258-.264.258s-.258-.113-.258-.258v-3.663h-.864a.255.255 0 110-.51h2.249a.26.26 0 01.258.258.26.26 0 01-.257.252zm1.554 3.663c0 .145-.12.258-.264.258s-.258-.113-.258-.258v-3.946c0-.143.114-.258.258-.258s.264.115.264.258v3.946zm2.712.258c-1.151 0-1.913-1.108-1.913-2.237 0-1.133.762-2.236 1.913-2.236s1.907 1.128 1.907 2.236c0 1.104-.756 2.237-1.907 2.237zm0-3.963c-.731 0-1.367.659-1.367 1.726 0 1.063.636 1.729 1.367 1.729s1.367-.666 1.367-1.729c0-1.067-.636-1.726-1.367-1.726zm6.143 3.712a.254.254 0 01-.258.251c-.09 0-.168-.042-.234-.125l-2.423-3.3v3.167c0 .145-.12.258-.264.258s-.258-.113-.258-.258v-3.951c0-.144.108-.253.264-.253a.28.28 0 01.216.102l2.435 3.306V61.18c0-.143.114-.258.258-.258.144 0 .264.115.264.258v3.952zm4.969-1.986c0 .138-.12.251-.258.251h-1.043v1.074a.254.254 0 01-.258.251.253.253 0 01-.252-.251v-1.074h-1.043a.255.255 0 110-.51h1.043v-1.054c0-.139.114-.259.252-.259a.26.26 0 01.258.259v1.054h1.043a.26.26 0 01.258.259zm4.74 2.237a.269.269 0 01-.252-.162l-.324-.815H45.03l-.324.822a.277.277 0 01-.246.155.25.25 0 01-.258-.246c0-.036.006-.071.018-.101l1.583-3.946a.268.268 0 01.24-.162c.107 0 .21.06.245.162l1.584 3.946c.012.029.018.06.018.089a.258.258 0 01-.257.258zm-.785-1.487l-.81-2.021-.804 2.021h1.614zm5.087-.186c0 1.044-.678 1.673-1.691 1.673s-1.69-.629-1.69-1.673v-2.531c0-.143.113-.258.258-.258.144 0 .264.115.264.258v2.52c0 .762.443 1.188 1.169 1.188s1.17-.426 1.17-1.188v-2.52a.26.26 0 01.258-.258c.149 0 .264.115.264.258v2.531zm3.131-2.248h-.863v3.663c0 .145-.12.258-.264.258s-.258-.113-.258-.258v-3.663h-.863a.255.255 0 110-.51h2.248a.26.26 0 01.259.258.26.26 0 01-.259.252zm3.9 3.663a.26.26 0 01-.264.258.26.26 0 01-.264-.258v-1.728h-1.931v1.728a.26.26 0 01-.264.258.26.26 0 01-.265-.258v-3.946c0-.143.12-.258.265-.258.144 0 .264.115.264.258v1.709h1.931v-1.709c0-.143.12-.258.264-.258.145 0 .264.115.264.258v3.946zm2.862.229h-1.612a.262.262 0 01-.265-.258V61.21c0-.145.114-.258.265-.258h1.612a.255.255 0 110 .51h-1.354v1.445h1.354a.255.255 0 110 .509h-1.354v1.427h1.354a.255.255 0 110 .511zm4.59-.222a.254.254 0 01-.258.251c-.09 0-.168-.042-.234-.125l-2.422-3.3v3.167a.26.26 0 01-.265.258.255.255 0 01-.258-.258v-3.951c0-.144.108-.253.265-.253a.28.28 0 01.216.102l2.435 3.306V61.18c0-.143.113-.258.258-.258.144 0 .264.115.264.258v3.952zm3.162-3.67h-.863v3.663c0 .145-.12.258-.264.258s-.258-.113-.258-.258v-3.663h-.863a.255.255 0 110-.51h2.248a.26.26 0 01.259.258.26.26 0 01-.259.252zm1.436 3.663a.26.26 0 01-.265.258.255.255 0 01-.258-.258v-3.946c0-.143.114-.258.258-.258.145 0 .265.115.265.258v3.946zm3.946-.12c-.228.169-.786.378-1.325.378-.456 0-.936-.198-1.296-.54-.294-.287-.647-.814-.647-1.697 0-.875.348-1.402.647-1.684.36-.342.84-.546 1.29-.546.581 0 1.097.269 1.283.479a.25.25 0 01.071.174c0 .155-.107.271-.258.271-.071 0-.126-.03-.191-.085a1.541 1.541 0 00-.888-.317c-.569 0-1.421.462-1.421 1.715 0 1.247.846 1.716 1.445 1.716.354 0 .761-.156.995-.294a.233.233 0 01.138-.042c.156 0 .271.113.271.258 0 .077-.03.154-.114.214zm3.996.378a.269.269 0 01-.252-.162l-.324-.815h-2.026l-.324.822a.275.275 0 01-.245.155.25.25 0 01-.258-.246c0-.036.006-.071.018-.101l1.583-3.946a.268.268 0 01.24-.162c.107 0 .21.06.245.162l1.584 3.946c.012.029.018.06.018.089a.261.261 0 01-.259.258zm-.785-1.487l-.81-2.021-.804 2.021h1.614zm3.377-2.434h-.863v3.663c0 .145-.12.258-.264.258s-.258-.113-.258-.258v-3.663h-.863a.255.255 0 110-.51h2.248a.26.26 0 01.259.258.26.26 0 01-.259.252zm1.435 3.663a.26.26 0 01-.265.258.255.255 0 01-.258-.258v-3.946c0-.143.114-.258.258-.258.145 0 .265.115.265.258v3.946zm2.717.258c-1.151 0-1.913-1.108-1.913-2.237 0-1.133.762-2.236 1.913-2.236s1.907 1.128 1.907 2.236c0 1.104-.755 2.237-1.907 2.237zm0-3.963c-.731 0-1.367.659-1.367 1.726 0 1.063.636 1.729 1.367 1.729s1.367-.666 1.367-1.729c0-1.067-.635-1.726-1.367-1.726zm6.024 3.712a.254.254 0 01-.258.251c-.09 0-.168-.042-.234-.125l-2.422-3.3v3.167a.26.26 0 01-.265.258.255.255 0 01-.258-.258v-3.951c0-.144.108-.253.265-.253a.28.28 0 01.216.102l2.435 3.306V61.18c0-.143.113-.258.258-.258.144 0 .264.115.264.258v3.952z" fill="#FFF"/><path fill="#CDD61E" d="M79.327 22.464c-.821 0-1.472.65-1.472 1.437v8.997c-1.196-1.676-3.181-2.429-5.097-2.429-4.584 0-8.074 4.378-8.074 9.887 0 2.6.821 5.063 2.327 6.738 1.505 1.677 3.626 2.602 5.747 2.602 1.847 0 3.9-.651 5.097-2.156v.718c0 .787.65 1.438 1.472 1.438.787 0 1.506-.651 1.506-1.438V23.901c0-.787-.719-1.437-1.506-1.437zm-1.472 21.552c-1.266 2.054-3.455 2.772-4.857 2.772-3.216 0-5.302-2.703-5.302-6.432 0-3.797 1.949-6.979 5.199-6.979 2.873 0 4.96 2.839 4.96 6.876v3.763zM60.307 22.464c-.822 0-1.472.65-1.472 1.437v8.997c-1.197-1.676-3.183-2.429-5.097-2.429-4.584 0-8.074 4.378-8.074 9.887 0 2.6.821 5.063 2.327 6.738 1.505 1.677 3.626 2.602 5.747 2.602 1.847 0 3.899-.651 5.097-2.156v.718c0 .787.649 1.438 1.472 1.438.786 0 1.504-.651 1.504-1.438V23.901c0-.787-.718-1.437-1.504-1.437zm-1.472 21.552c-1.265 2.054-3.455 2.772-4.857 2.772-3.217 0-5.303-2.703-5.303-6.432 0-3.797 1.95-6.979 5.2-6.979 2.874 0 4.96 2.839 4.96 6.876v3.763zm-15.12-4.55c0-3.66-3.079-8.997-8.142-8.997-4.619 0-8.211 4.413-8.211 9.715 0 5.028 3.148 9.546 8.04 9.546 2.566 0 6.021-1.198 7.423-2.703.24-.274.445-.547.445-1.062 0-.854-.581-1.437-1.471-1.437-.342 0-.684.137-.992.377-1.403 1.06-3.25 1.882-5.097 1.882-2.977 0-4.961-2.224-5.337-5.269h11.905c.821.002 1.437-.41 1.437-2.052zm-13.274-.82c.582-3.011 2.6-5.269 5.098-5.269 2.463 0 4.515 2.258 5.097 5.269H30.441z"/><path fill="#FFF" d="M.303 13.343V.83c0-.444.367-.83.83-.83h3.418a4.487 4.487 0 014.48 4.499 4.483 4.483 0 01-4.48 4.48h-1.1a.82.82 0 110-1.641h1.1A2.844 2.844 0 007.39 4.499a2.848 2.848 0 00-2.839-2.858H1.964v11.702c0 .463-.367.83-.831.83a.824.824 0 01-.83-.83m14.655-5.406H13.76a.816.816 0 01-.811-.811.82.82 0 01.811-.83h1.217a2.328 2.328 0 002.336-2.318 2.328 2.328 0 00-2.336-2.317h-2.665v11.683a.82.82 0 11-1.641 0V.831c0-.444.367-.83.811-.83h3.495a3.984 3.984 0 013.978 3.977c0 2.202-1.816 3.959-3.997 3.959M18.8 12.88c.097.135.155.29.155.464 0 .444-.367.83-.831.83a.78.78 0 01-.656-.348l-2.762-3.92a.811.811 0 01-.135-.463c0-.425.309-.83.792-.83.309 0 .56.154.695.347l2.742 3.92zm7.627.425c0-.425.251-.579.599-.753 1.815-.946 3.417-2.144 3.417-5.156 0-3.34-1.95-5.754-4.344-5.754-2.395 0-4.345 2.414-4.345 5.754 0 2.974 1.545 4.171 3.398 5.156.367.193.599.328.599.753a.829.829 0 01-.83.869.68.68 0 01-.213-.039c-2.935-.907-4.615-3.92-4.615-6.913 0-3.553 2.376-7.221 6.006-7.221s5.986 3.707 5.986 7.183c0 3.051-1.815 6.217-4.615 6.951a.95.95 0 01-.251.039c-.329 0-.792-.309-.792-.869m7.009-.174a.878.878 0 01-.367-.714c0-.464.386-.792.83-.792.155 0 .29.039.425.116.174.116 1.082.791 2.549.791 1.429 0 3.206-.637 3.206-2.433 0-1.911-2.028-2.394-3.283-2.838-1.738-.618-3.495-1.68-3.495-3.804 0-2.221 1.95-3.418 4.093-3.418 1.236 0 2.569.406 3.245.985.25.212.347.425.347.656 0 .483-.425.831-.85.831-.173 0-.308-.058-.463-.155-.522-.328-1.082-.656-2.163-.656-1.293 0-2.549.483-2.549 1.738 0 .405.136 1.602 2.897 2.413.656.193 3.862 1.082 3.862 4.248 0 2.762-2.452 4.075-4.885 4.075-1.604 0-2.686-.58-3.399-1.043m10.098.212V.83c0-.444.367-.83.83-.83h3.417a4.486 4.486 0 014.48 4.499 4.483 4.483 0 01-4.48 4.48H46.68a.82.82 0 110-1.641h1.101a2.848 2.848 0 000-5.697h-2.586v11.702c0 .463-.367.83-.831.83a.824.824 0 01-.83-.83m10.368-8.554V.83c0-.463.366-.83.83-.83h5.078a.821.821 0 010 1.641h-4.268v3.148a.82.82 0 11-1.64 0m0 8.554V7.125c0-.463.366-.83.83-.83h5.078a.821.821 0 010 1.641h-4.268v4.596h4.268a.82.82 0 010 1.641h-5.078a.836.836 0 01-.83-.83m10.252-.888c-.927-.908-2.026-2.568-2.026-5.368s1.1-4.46 2.026-5.368C65.274.638 66.78 0 68.172 0c1.641 0 3.436.869 4.016 1.526.154.174.231.347.231.56a.832.832 0 01-.85.849c-.231 0-.366-.077-.56-.251-.579-.502-1.719-1.023-2.781-1.023-1.775 0-4.44 1.448-4.44 5.445 0 3.978 2.646 5.426 4.519 5.426 1.1 0 2.375-.502 3.108-.927a.74.74 0 01.425-.135c.502 0 .85.386.85.85 0 .251-.097.463-.348.656-.714.541-2.684 1.198-4.151 1.198-1.411 0-2.917-.618-4.037-1.719M74.543 1.699c-.463 0-.83-.367-.83-.83s.367-.83.83-.83h7.028c.463 0 .83.367.83.83s-.367.83-.83.83h-7.028zm2.684 11.644V3.187a.82.82 0 111.641 0v10.157a.82.82 0 11-1.641-.001m6.313-.212a.88.88 0 01-.366-.714c0-.464.386-.792.829-.792.155 0 .29.039.426.116.174.116 1.082.791 2.549.791 1.429 0 3.205-.637 3.205-2.433 0-1.911-2.027-2.394-3.282-2.838-1.738-.618-3.495-1.68-3.495-3.804 0-2.221 1.95-3.418 4.093-3.418 1.236 0 2.569.406 3.244.985.251.212.348.425.348.656 0 .483-.425.831-.849.831-.174 0-.309-.058-.464-.155-.522-.328-1.082-.656-2.164-.656-1.293 0-2.549.483-2.549 1.738 0 .405.136 1.602 2.896 2.413.657.193 3.862 1.082 3.862 4.248 0 2.762-2.452 4.075-4.885 4.075-1.602 0-2.684-.58-3.398-1.043"/><path fill="#D0DF00" d="M87.295 17.462H16.486a1.026 1.026 0 100 2.052h70.809c2.198 0 2.779 1.703 2.779 2.603V51.6c0 2.57-2.752 2.601-2.779 2.601H4.833c-2.199 0-2.78-1.701-2.78-2.601V22.118c0-2.573 2.75-2.603 2.78-2.603l5.253-.012v28.754c0 .787.65 1.438 1.437 1.438.821 0 1.471-.651 1.471-1.438v-12.52c1.368-1.437 3.079-2.326 4.96-2.326 2.395 0 3.695 1.813 3.695 4.071v10.775c0 .787.65 1.438 1.437 1.438.821 0 1.471-.651 1.471-1.438V37.482c0-3.832-2.702-6.979-6.5-6.979-1.882 0-3.558.616-5.063 1.813V18.884c0-.778-.635-1.419-1.442-1.434-.005 0-.009-.003-.014-.003h-.014l-6.692.015C2.489 17.462 0 19.094 0 22.118v29.483c0 2.256 1.693 4.653 4.833 4.653h82.462c2.343 0 4.832-1.631 4.832-4.653V22.118c0-2.257-1.693-4.656-4.832-4.656z"/></svg>