<svg xmlns="http://www.w3.org/2000/svg" width="50" height="50" viewBox="0 0 50 50"><g fill="none" fill-rule="evenodd"><path fill="#E85E13" d="M.975 50.975h50v-50h-50z"/><path fill="#FFF" d="M41.06 34.75c-3.776 0-6.56-3.012-6.56-6.714 0-3.703 2.79-6.786 6.585-6.786 2.406 0 3.895.91 5.07 2.23l-1.803 1.986c-.886-.955-1.828-1.616-3.292-1.616-2.117 0-3.651 1.864-3.651 4.14 0 2.326 1.564 4.19 3.795 4.19 1.37 0 2.381-.66 3.293-1.615l1.753 1.767c-1.25 1.412-2.715 2.418-5.19 2.418zM33 30.652c0 2.737-2.047 4.098-4.667 4.098-1.786 0-3.76-.665-5.333-1.949l1.288-2.02c1.356 1.058 2.831 1.606 4.12 1.606 1.237 0 1.948-.543 1.948-1.407v-.051c0-1.013-1.332-1.356-2.807-1.827-1.855-.542-3.927-1.33-3.927-3.826v-.051c0-2.466 1.978-3.975 4.474-3.975 1.57 0 3.286.568 4.618 1.484l-1.145 2.122c-1.213-.762-2.5-1.232-3.547-1.232-1.12 0-1.761.542-1.761 1.31v.05c0 .937 1.357 1.33 2.832 1.827 1.83.593 3.902 1.458 3.902 3.8l.005.041zM19.88 20A1.88 1.88 0 0118 18.13a1.88 1.88 0 011.87-1.88 1.88 1.88 0 011.88 1.87v.005A1.867 1.867 0 0119.88 20zM18.5 34.5h3v-13h-3v13zm-2.25-5.777c0 4.033-2.377 6.027-5.76 6.027-2.646 0-4.362-1.213-5.49-2.744l1.986-2.014c1.006 1.264 2.006 1.994 3.454 1.994 1.615 0 2.722-1.068 2.722-3.328V17.5h3.088v11.223z"/></g></svg>