<svg xmlns="http://www.w3.org/2000/svg" version="1.0" width="456.35" height="70.671" viewBox="0 0 456.35 70.671"><path fill="#FFF" d="M0 66.532V4.14C0 1.926 1.83 0 4.14 0h17.042C33.506 0 43.52 10.014 43.52 22.434c0 12.324-10.014 22.338-22.338 22.338h-5.488a4.11 4.11 0 01-4.14-4.14c0-2.215 1.829-4.044 4.14-4.044h5.488c7.799 0 14.154-6.355 14.154-14.154 0-7.895-6.354-14.25-14.154-14.25H8.28v58.348a4.109 4.109 0 01-4.14 4.14A4.11 4.11 0 010 66.532zm73.074-26.96h-5.97c-2.214 0-4.044-1.829-4.044-4.043 0-2.311 1.83-4.14 4.044-4.14h6.066c6.451 0 11.65-5.2 11.65-11.554S79.622 8.28 73.17 8.28H59.883v58.251a4.109 4.109 0 01-4.14 4.14c-2.214 0-4.044-1.829-4.044-4.14V4.14c0-2.214 1.83-4.14 4.044-4.14H73.17c10.976 0 19.834 8.955 19.834 19.834.001 10.977-9.05 19.738-19.93 19.738zm19.16 24.648c.481.675.771 1.444.771 2.312 0 2.214-1.83 4.14-4.14 4.14-1.252 0-2.503-.577-3.274-1.732L71.822 49.394c-.481-.674-.674-1.541-.674-2.311 0-2.118 1.541-4.14 3.948-4.14 1.541 0 2.792.771 3.466 1.733L92.234 64.22zm38.029 2.119c0-2.119 1.251-2.889 2.985-3.756 9.05-4.718 17.042-10.687 17.042-25.707 0-16.657-9.725-28.692-21.664-28.692-11.939 0-21.664 12.036-21.664 28.692 0 14.828 7.703 20.797 16.946 25.707 1.83.963 2.985 1.637 2.985 3.756 0 3.081-2.407 4.332-4.14 4.332-.385 0-.77-.096-1.059-.192-14.635-4.525-23.012-19.545-23.012-34.469C98.682 18.294 110.525 0 128.626 0s29.848 18.486 29.848 35.817c0 15.213-9.051 31.002-23.012 34.662a4.853 4.853 0 01-1.252.192c-1.636 0-3.947-1.54-3.947-4.332zm34.946-.867c-1.155-.771-1.83-2.214-1.83-3.563 0-2.311 1.926-3.947 4.141-3.947.77 0 1.444.192 2.118.577.866.578 5.392 3.948 12.709 3.948 7.125 0 15.983-3.178 15.983-12.132 0-9.532-10.11-11.939-16.368-14.153-8.666-3.081-17.427-8.376-17.427-18.968 0-11.073 9.725-17.042 20.412-17.042 6.162 0 12.806 2.022 16.176 4.91 1.251 1.059 1.733 2.118 1.733 3.274 0 2.407-2.118 4.14-4.236 4.14-.867 0-1.541-.289-2.311-.771-2.6-1.637-5.392-3.273-10.784-3.273-6.451 0-12.709 2.407-12.709 8.666 0 2.022.674 7.991 14.442 12.035 3.273.963 19.256 5.392 19.256 21.182 0 13.769-12.228 20.315-24.359 20.315-7.991.001-13.384-2.887-16.946-5.198zm50.352 1.06V4.14c0-2.214 1.83-4.14 4.14-4.14h17.042c12.324 0 22.338 10.014 22.338 22.434 0 12.324-10.014 22.338-22.338 22.338h-5.488a4.11 4.11 0 01-4.14-4.14c0-2.215 1.829-4.044 4.14-4.044h5.488c7.8 0 14.154-6.355 14.154-14.154 0-7.895-6.354-14.25-14.154-14.25h-12.902v58.348a4.109 4.109 0 01-4.14 4.14 4.11 4.11 0 01-4.14-4.14zm51.699-42.654V4.14A4.109 4.109 0 01271.4 0h25.323c2.214 0 4.043 1.83 4.043 4.14 0 2.215-1.829 4.044-4.043 4.044h-21.279v15.694c0 2.311-1.829 4.14-4.044 4.14a4.108 4.108 0 01-4.14-4.14zm0 42.654V35.529a4.109 4.109 0 014.14-4.14h25.323c2.214 0 4.043 1.829 4.043 4.14 0 2.214-1.829 4.043-4.043 4.043h-21.279v22.916h21.279c2.214 0 4.043 1.829 4.043 4.044 0 2.311-1.829 4.14-4.043 4.14H271.4c-2.406-.001-4.14-2.022-4.14-4.14zm51.123-4.43c-4.621-4.525-10.109-12.805-10.109-26.766s5.488-22.241 10.109-26.767C323.968 3.178 331.478 0 338.411 0c8.184 0 17.138 4.333 20.026 7.606.771.867 1.155 1.733 1.155 2.792 0 2.503-1.926 4.236-4.236 4.236-1.155 0-1.829-.385-2.792-1.252-2.889-2.503-8.569-5.103-13.865-5.103-8.857 0-22.145 7.222-22.145 27.152 0 19.834 13.19 27.056 22.53 27.056 5.488 0 11.843-2.504 15.501-4.622.771-.481 1.349-.674 2.118-.674 2.504 0 4.237 1.926 4.237 4.236 0 1.252-.481 2.311-1.733 3.273-3.563 2.696-13.384 5.97-20.701 5.97-7.028.001-14.538-3.08-20.123-8.568zM370.18 8.473a4.11 4.11 0 01-4.141-4.14 4.11 4.11 0 014.141-4.14h35.047a4.109 4.109 0 014.14 4.14 4.109 4.109 0 01-4.14 4.14H370.18zm13.383 58.059V15.887a4.11 4.11 0 014.141-4.14c2.214 0 4.044 1.83 4.044 4.14v50.645c0 2.311-1.83 4.14-4.044 4.14a4.11 4.11 0 01-4.141-4.14zm31.482-1.06c-1.156-.771-1.83-2.214-1.83-3.563 0-2.311 1.926-3.947 4.141-3.947.771 0 1.444.192 2.118.577.866.578 5.392 3.948 12.709 3.948 7.125 0 15.983-3.178 15.983-12.132 0-9.532-10.11-11.939-16.368-14.153-8.666-3.081-17.428-8.376-17.428-18.968 0-11.073 9.725-17.042 20.412-17.042 6.162 0 12.806 2.022 16.176 4.91 1.252 1.059 1.733 2.118 1.733 3.274 0 2.407-2.118 4.14-4.236 4.14-.867 0-1.541-.289-2.312-.771-2.6-1.637-5.392-3.273-10.783-3.273-6.451 0-12.71 2.407-12.71 8.666 0 2.022.675 7.991 14.442 12.035 3.274.963 19.257 5.392 19.257 21.182 0 13.769-12.228 20.315-24.359 20.315-7.99.001-13.383-2.887-16.945-5.198z"/></svg>