<svg version="1.0" xmlns="http://www.w3.org/2000/svg" width="142" height="103" viewBox="0 0 142 103"><path d="M9.97 58.82H2.538c-.623 0-1.098-.475-1.098-1.072V41.435c0-.598.475-1.072 1.098-1.072.574 0 1.098.474 1.098 1.072V56.7H9.97c.599 0 1.098.475 1.098 1.05a1.07 1.07 0 01-1.098 1.07m13.072-5.19c.025 2.92-2.27 5.29-5.288 5.29-3.043 0-5.312-2.37-5.312-5.29v-7.68c0-.574.474-1.048 1.047-1.048.599 0 1.072.474 1.072 1.048v7.681c0 1.746 1.322 3.168 3.192 3.168 1.846 0 3.168-1.422 3.168-3.168v-7.68c0-.575.474-1.049 1.048-1.049.599 0 1.072.474 1.072 1.048l.001 7.68zm21.127 4.243c0 .574-.474 1.047-1.072 1.047a1.054 1.054 0 01-1.048-1.047v-7.882c0-1.646-.972-2.968-2.719-2.968-1.247 0-2.369.524-3.316 1.397.149.5.224 1.022.224 1.571v7.882c0 .574-.474 1.047-1.072 1.047a1.054 1.054 0 01-1.048-1.047v-7.882c0-1.646-.948-2.968-2.693-2.968-1.172 0-2.22.45-3.117 1.222v9.627c0 .574-.474 1.047-1.073 1.047a1.053 1.053 0 01-1.047-1.047V45.95c0-.574.474-1.048 1.047-1.048a1.06 1.06 0 011.073 1.048v.125c.973-.798 1.92-1.173 3.192-1.173 1.621 0 2.943.773 3.792 1.97 1.296-1.346 2.469-1.97 4.115-1.97 2.793 0 4.764 2.295 4.764 5.088v7.883h-.002zm5.366 0c0 .574-.474 1.047-1.072 1.047a1.053 1.053 0 01-1.048-1.047V45.925c0-.574.474-1.048 1.048-1.048.599 0 1.072.474 1.072 1.048v11.948zm13.818 0c0 .574-.474 1.047-1.073 1.047a1.053 1.053 0 01-1.047-1.047v-7.882c0-1.622-.948-2.968-2.694-2.968-1.372 0-2.619.673-3.616 1.696v9.154c0 .574-.474 1.047-1.073 1.047a1.052 1.052 0 01-1.047-1.047V45.95c0-.574.474-1.048 1.047-1.048a1.06 1.06 0 011.073 1.048v.5c1.197-1.099 2.319-1.547 3.691-1.547 2.769 0 4.739 2.32 4.739 5.088v7.882zm13.87 0c0 .574-.523 1.047-1.099 1.047a1.059 1.059 0 01-1.072-1.047v-.523c-.872 1.1-2.37 1.57-3.716 1.57-1.547 0-3.094-.674-4.19-1.896-1.098-1.222-1.696-3.019-1.696-4.913 0-4.016 2.544-7.208 5.887-7.208 1.396 0 2.845.55 3.716 1.771v-.724a1.06 1.06 0 011.072-1.048c.574 0 1.098.474 1.098 1.048v11.923zm-2.171-5.836c0-2.944-1.521-5.014-3.616-5.014-2.37 0-3.791 2.32-3.791 5.088 0 2.72 1.521 4.688 3.866 4.688 1.022 0 2.619-.522 3.542-2.02l-.001-2.742zm9.055 6.883c-2.368 0-3.767-1.57-3.767-3.592V42.06c0-.599.476-1.073 1.048-1.073.6 0 1.071.475 1.071 1.073v1.497c0 .947.601 1.446 1.474 1.446h.174c.574 0 1.047.474 1.047 1.072 0 .573-.473 1.048-1.047 1.048h-1.646v8.206c0 .8.549 1.473 1.646 1.473.647 0 1.098.476 1.098 1.072 0 .573-.447 1.047-1.098 1.047m13.57-5.961h-8.679c.273 2.218 1.721 3.841 3.891 3.841 1.348 0 2.693-.6 3.717-1.373.225-.174.474-.273.724-.273.647 0 1.071.426 1.071 1.05 0 .371-.148.572-.323.771-1.022 1.098-3.542 1.97-5.412 1.97-3.567 0-5.86-3.292-5.86-6.958 0-3.866 2.616-7.083 5.984-7.083 3.691 0 5.938 3.891 5.938 6.56-.003 1.195-.453 1.494-1.051 1.494zm-1.197-2.097c-.424-2.195-1.92-3.84-3.717-3.84-1.82 0-3.291 1.646-3.716 3.841h7.433z" fill="#FFF"/><path d="M92.521 19.076c.082-3.275.185-6.552.215-9.011.035-2.458.061-4.097.061-4.097l-.139-.009-.414 4.079c-.254 2.445-.53 5.71-.828 8.976-.14 1.631-.344 3.259-.443 4.792a55.62 55.62 0 00-.077 4.2c.03 2.462.247 4.116.247 4.116l.138.008s.404-1.618.722-4.061a57.9 57.9 0 00.41-4.181c.074-1.533.06-3.174.108-4.812m1.81 13.481s.712-1.78 1.495-4.512a76.852 76.852 0 001.21-4.695c.37-1.733.673-3.604 1.038-5.461.711-3.717 1.441-7.428 1.947-10.222.51-2.793.848-4.655.848-4.655l-.135-.03s-.479 1.832-1.194 4.579c-.722 2.746-1.625 6.419-2.547 10.09-.454 1.837-.968 3.659-1.364 5.388a76.465 76.465 0 00-.883 4.769c-.445 2.807-.549 4.72-.549 4.72l.134.029zm4.143-2.995c-.768 2.323-1.1 3.945-1.1 3.945l.127.052s.907-1.386 1.995-3.577a54.44 54.44 0 001.741-3.792c.568-1.415 1.09-2.961 1.663-4.483 1.14-3.049 2.297-6.092 3.122-8.39.831-2.297 1.383-3.829 1.383-3.829l-.127-.052s-.686 1.477-1.712 3.694c-1.033 2.214-2.353 5.188-3.688 8.157-.662 1.487-1.38 2.949-1.973 4.355a56.633 56.633 0 00-1.43 3.92m3.856 1.146c-1.35 2.489-2.08 4.252-2.08 4.252l.116.074s1.26-1.435 2.902-3.74a74.607 74.607 0 002.695-4.009c.922-1.506 1.828-3.16 2.785-4.784 1.901-3.254 3.82-6.498 5.221-8.954l2.344-4.091-.118-.073-2.642 3.903c-1.59 2.34-3.658 5.49-5.742 8.631-1.037 1.573-2.125 3.115-3.069 4.607a74.924 74.924 0 00-2.412 4.184m5.606-.873a61.724 61.724 0 00-2.752 3.408c-1.555 2.044-2.443 3.536-2.443 3.536l.105.092s1.354-1.083 3.172-2.9a60.64 60.64 0 003.003-3.188c1.044-1.216 2.085-2.574 3.174-3.892 2.166-2.645 4.345-5.277 5.946-7.281l2.674-3.334-.104-.09-2.94 3.101c-1.77 1.857-4.08 4.373-6.408 6.877-1.159 1.256-2.364 2.473-3.427 3.671m2.723 3.453a51.276 51.276 0 00-2.95 2.68c-1.68 1.626-2.675 2.86-2.675 2.86l.088.105s1.393-.756 3.295-2.117a50.823 50.823 0 003.164-2.421c1.111-.944 2.236-2.022 3.4-3.052 2.316-2.073 4.646-4.13 6.367-5.71 1.723-1.574 2.87-2.625 2.87-2.625l-.089-.106-3.098 2.353c-1.86 1.408-4.305 3.331-6.762 5.239-1.22.958-2.483 1.871-3.61 2.794m3.53 2.445a72.594 72.594 0 00-3.958 2.626c-2.277 1.604-3.693 2.837-3.693 2.837l.072.118s1.741-.705 4.201-2.011a71.97 71.97 0 004.131-2.343c1.473-.92 2.995-1.981 4.55-2.99 3.101-2.031 6.212-4.044 8.52-5.595l3.854-2.575-.072-.117-4.039 2.273c-2.428 1.359-5.63 3.224-8.845 5.071-1.6.93-3.237 1.807-4.722 2.706m5.663 2.309c-1.542.61-3.106 1.162-4.539 1.761a58.518 58.518 0 00-3.837 1.823c-2.217 1.136-3.615 2.075-3.615 2.075l.053.127s1.646-.367 3.998-1.184a59.205 59.205 0 003.97-1.516c1.421-.623 2.9-1.375 4.405-2.068 3.004-1.403 6.016-2.786 8.256-3.866l3.737-1.792-.054-.127-3.877 1.466c-2.329.874-5.41 2.098-8.497 3.301m.82 4.645c-1.512.354-3.039.648-4.449 1.009a50.928 50.928 0 00-3.803 1.181c-2.207.766-3.625 1.465-3.625 1.465l.034.133s1.58-.099 3.874-.529a51.392 51.392 0 003.89-.858c1.402-.386 2.876-.888 4.364-1.333 2.973-.9 5.951-1.781 8.174-2.487 2.224-.699 3.705-1.167 3.705-1.167l-.035-.133-3.797.824c-2.28.492-5.303 1.204-8.332 1.895m-1.539 4.502a83.414 83.414 0 00-4.98.762c-2.908.525-4.825 1.063-4.825 1.063l.017.137s1.987.073 4.938-.101a82.646 82.646 0 005.021-.431c1.828-.238 3.771-.567 5.718-.85 3.892-.574 7.786-1.123 10.7-1.589l4.86-.753-.017-.138-4.9.41c-2.943.232-6.857.613-10.775.971-1.96.185-3.924.321-5.757.519m-31.25-14.967s.076-1.955-.09-4.853a79.997 79.997 0 00-.42-4.935c-.234-1.795-.56-3.703-.839-5.614-.565-3.823-1.106-7.65-1.567-10.513-.444-2.865-.742-4.774-.742-4.774l-.137.016.398 4.815c.227 2.891.6 6.737.95 10.586.177 1.924.31 3.854.505 5.653a79.36 79.36 0 00.752 4.896c.518 2.855 1.052 4.737 1.052 4.737l.138-.014zm-7.836-11.659c.433 1.58.806 3.178 1.24 4.651.45 1.468.934 2.819 1.381 3.967.881 2.301 1.654 3.778 1.654 3.778l.131-.041s-.179-1.658-.729-4.059a55.509 55.509 0 00-1.062-4.064c-.459-1.465-1.038-3-1.56-4.554-1.057-3.103-2.094-6.211-2.914-8.528l-1.36-3.866-.133.04 1.021 3.969c.612 2.383 1.481 5.542 2.331 8.707m-5.675.152c.79 1.72 1.524 3.465 2.291 5.063a75.917 75.917 0 002.281 4.281c1.403 2.472 2.513 4.034 2.513 4.034l.125-.062s-.552-1.835-1.644-4.459a77.333 77.333 0 00-1.979-4.427c-.793-1.587-1.72-3.239-2.592-4.917-1.76-3.35-3.5-6.711-4.848-9.209l-2.238-4.17-.125.061s.77 1.73 1.92 4.325c1.146 2.598 2.73 6.036 4.296 9.48m-3.797 4.848c.918 1.344 1.785 2.724 2.67 3.965a56.05 56.05 0 002.584 3.277c1.573 1.873 2.78 3.007 2.78 3.007l.111-.081s-.705-1.499-1.998-3.575a54.666 54.666 0 00-2.312-3.473c-.907-1.227-1.95-2.479-2.942-3.77-1.997-2.57-3.979-5.152-5.503-7.061-1.52-1.913-2.53-3.188-2.53-3.188l-.114.082 2.245 3.395c1.345 2.04 3.185 4.724 5.01 7.422m-5.5 2.145c1.312 1.352 2.581 2.749 3.833 3.995a75.624 75.624 0 003.563 3.261c2.138 1.855 3.7 2.954 3.7 2.954l.097-.099s-1.129-1.542-3.023-3.645a75.83 75.83 0 00-3.327-3.5c-1.27-1.228-2.69-2.47-4.067-3.756-2.765-2.563-5.516-5.139-7.61-7.039l-3.486-3.172-.097.098 3.236 3.425c1.94 2.061 4.57 4.761 7.181 7.478m-2.314 5.077c1.367 1.025 2.7 2.1 4 3.036a61.751 61.751 0 003.668 2.393c2.193 1.338 3.766 2.072 3.766 2.072l.08-.112s-1.215-1.241-3.207-2.863a61.146 61.146 0 00-3.477-2.666c-1.314-.915-2.77-1.813-4.192-2.762-2.85-1.887-5.689-3.79-7.845-5.179l-3.589-2.323-.08.112 3.384 2.613c2.03 1.572 4.764 3.617 7.492 5.679m37.308 49.606c-.432-1.58-.807-3.18-1.24-4.65a56.239 56.239 0 00-1.38-3.967c-.882-2.301-1.655-3.776-1.655-3.776l-.132.041s.18 1.655.73 4.058a54.99 54.99 0 001.061 4.063c.458 1.466 1.038 3 1.56 4.555 1.057 3.104 2.093 6.211 2.914 8.529l1.36 3.866.132-.043-1.02-3.969c-.61-2.382-1.48-5.541-2.33-8.707m5.674-.151c-.79-1.719-1.523-3.467-2.29-5.064a75.125 75.125 0 00-2.282-4.279c-1.402-2.473-2.513-4.035-2.513-4.035l-.124.063s.553 1.835 1.645 4.457a75.234 75.234 0 001.98 4.429c.79 1.588 1.72 3.237 2.591 4.916 1.76 3.352 3.5 6.711 4.848 9.211 1.344 2.5 2.238 4.168 2.238 4.168l.125-.063s-.77-1.729-1.92-4.322c-1.148-2.601-2.732-6.037-4.298-9.481m3.797-4.847c-.918-1.346-1.783-2.726-2.67-3.967a55.626 55.626 0 00-2.584-3.275c-1.572-1.873-2.779-3.008-2.779-3.008l-.11.082s.702 1.498 1.996 3.574a56.593 56.593 0 002.312 3.475c.907 1.226 1.95 2.479 2.942 3.769 1.998 2.569 3.98 5.153 5.504 7.063 1.521 1.912 2.53 3.188 2.53 3.188l.111-.082s-.896-1.357-2.246-3.396c-1.342-2.045-3.182-4.728-5.006-7.423m5.5-2.146c-1.313-1.353-2.582-2.748-3.834-3.996a77.519 77.519 0 00-3.563-3.263c-2.139-1.854-3.699-2.951-3.699-2.951l-.098.1s1.13 1.539 3.022 3.645a74.276 74.276 0 003.327 3.5c1.271 1.228 2.69 2.47 4.066 3.757 2.767 2.562 5.515 5.14 7.611 7.038 2.092 1.902 3.484 3.173 3.484 3.173l.098-.101s-1.295-1.371-3.238-3.424c-1.936-2.061-4.564-4.762-7.176-7.478m2.314-5.078c-1.369-1.024-2.699-2.099-4-3.036a61.928 61.928 0 00-3.67-2.393c-2.19-1.34-3.766-2.072-3.766-2.072l-.078.113s1.215 1.24 3.205 2.861a61.41 61.41 0 003.478 2.666c1.313.916 2.771 1.813 4.192 2.762 2.851 1.889 5.688 3.791 7.844 5.18l3.588 2.322.08-.111-3.385-2.611c-2.025-1.573-4.762-3.618-7.488-5.681m1.66-4.981c-1.375-.728-2.719-1.513-4.02-2.166a50.898 50.898 0 00-3.647-1.611c-2.17-.875-3.7-1.283-3.7-1.283l-.062.125s1.256.965 3.271 2.15a50.037 50.037 0 003.5 1.91c1.312.633 2.753 1.223 4.168 1.867 2.836 1.278 5.663 2.573 7.803 3.504l3.563 1.559.061-.123s-1.362-.752-3.405-1.877c-2.039-1.132-4.789-2.584-7.532-4.055m3.768-3.614c-1.748-.615-3.477-1.288-5.125-1.838a73.28 73.28 0 00-4.566-1.305c-2.696-.691-4.556-.968-4.556-.968l-.042.132s1.666.865 4.256 1.887a71.534 71.534 0 004.465 1.625c1.656.522 3.451.99 5.23 1.519 3.558 1.042 7.106 2.099 9.787 2.851l4.46 1.262.042-.135-4.35-1.597c-2.612-.962-6.109-2.187-9.6-3.433m-13.571-6.859l-.022.137s1.582.582 4.003 1.164a57.75 57.75 0 004.156.871c1.533.245 3.187.416 4.824.645 3.285.445 6.567.908 9.037 1.212 2.467.307 4.111.514 4.111.514l.021-.137s-1.62-.347-4.054-.863c-2.432-.522-5.683-1.161-8.933-1.815-1.626-.322-3.24-.703-4.77-.976a59.624 59.624 0 00-4.215-.541c-2.475-.242-4.158-.211-4.158-.211m4.13-2.081c1.164.119 2.52.22 3.975.255 1.455.02 3.01-.054 4.561-.064 3.108-.04 6.215-.059 8.547-.118l3.881-.093.005-.137-3.875-.264c-2.326-.164-5.429-.321-8.529-.497-1.552-.081-3.103-.224-4.556-.267-1.454-.03-2.814.01-3.98.078-2.333.122-3.892.398-3.892.398l-.003.138c-.003.001 1.542.345 3.866.571M94.781 85.99c-.179-1.922-.313-3.852-.507-5.652a78.556 78.556 0 00-.753-4.896c-.518-2.854-1.05-4.734-1.05-4.734l-.14.016s-.076 1.955.09 4.854c.08 1.449.21 3.137.42 4.934.233 1.797.561 3.703.838 5.614.565 3.825 1.105 7.649 1.567 10.515l.742 4.772.14-.017-.4-4.816c-.224-2.892-.599-6.738-.947-10.59m-5.807-15.158l-.139-.007s-.406 1.616-.722 4.06a57.943 57.943 0 00-.41 4.18c-.075 1.535-.063 3.176-.108 4.814-.082 3.275-.187 6.551-.217 9.01-.035 2.459-.06 4.098-.06 4.098l.14.009s.166-1.629.412-4.078c.256-2.444.531-5.711.827-8.976.142-1.631.345-3.26.445-4.793.087-1.533.1-2.967.077-4.201-.03-2.462-.245-4.116-.245-4.116m-4.681 4.076a75.898 75.898 0 00-1.212 4.697c-.37 1.731-.673 3.604-1.038 5.461-.71 3.715-1.443 7.428-1.947 10.223l-.848 4.654.135.029s.48-1.83 1.193-4.576c.725-2.748 1.625-6.42 2.55-10.092.452-1.836.966-3.66 1.362-5.388.381-1.731.668-3.364.883-4.769.443-2.809.55-4.723.55-4.723l-.136-.029c0 .001-.712 1.783-1.492 4.513m-2.651-1.515c.768-2.322 1.1-3.945 1.1-3.945l-.128-.053s-.905 1.387-1.995 3.578a54.776 54.776 0 00-1.74 3.789c-.569 1.416-1.09 2.963-1.664 4.484-1.14 3.051-2.297 6.093-3.12 8.391-.833 2.299-1.384 3.83-1.384 3.83l.127.053 1.711-3.694c1.033-2.214 2.353-5.188 3.688-8.156.662-1.487 1.381-2.95 1.974-4.354a57.628 57.628 0 001.431-3.923m-3.857-1.147c1.348-2.49 2.082-4.252 2.082-4.252l-.117-.074s-1.26 1.434-2.902 3.741a76.54 76.54 0 00-2.695 4.007c-.923 1.506-1.828 3.162-2.786 4.785-1.902 3.255-3.82 6.498-5.22 8.953l-2.343 4.092.118.072s1.057-1.563 2.642-3.902c1.59-2.34 3.658-5.49 5.741-8.629 1.035-1.575 2.125-3.117 3.068-4.609a73.343 73.343 0 002.412-4.184m-5.605.873a62.575 62.575 0 002.751-3.408c1.555-2.045 2.443-3.535 2.443-3.535l-.105-.092s-1.355 1.083-3.172 2.898a62.278 62.278 0 00-3.004 3.188c-1.043 1.216-2.084 2.574-3.173 3.892-2.166 2.646-4.345 5.276-5.946 7.281l-2.673 3.334.104.092 2.941-3.103c1.77-1.856 4.081-4.373 6.408-6.877 1.158-1.256 2.363-2.473 3.425-3.67m-2.722-3.453a51.308 51.308 0 002.951-2.68c1.68-1.627 2.674-2.859 2.674-2.859l-.088-.107s-1.393.76-3.294 2.117a50.563 50.563 0 00-3.167 2.424c-1.11.943-2.234 2.021-3.399 3.051-2.317 2.074-4.647 4.132-6.367 5.711l-2.87 2.623.088.107s1.24-.939 3.097-2.352c1.861-1.408 4.306-3.333 6.762-5.239 1.223-.96 2.486-1.872 3.613-2.796" fill="#DE7C00"/><path d="M7.55 40.776v-5.774c0-.205.17-.383.383-.383H9.51a2.07 2.07 0 012.067 2.076c0 1.14-.927 2.067-2.067 2.067h-.508a.38.38 0 110-.758h.508a1.314 1.314 0 000-2.628H8.316v5.399a.38.38 0 01-.383.383.378.378 0 01-.383-.382m6.762-2.496h-.552a.379.379 0 010-.758h.562c.597 0 1.078-.48 1.078-1.068 0-.587-.48-1.07-1.078-1.07h-1.23v5.392a.378.378 0 11-.757 0v-5.774c0-.205.17-.383.374-.383h1.613c1.016 0 1.835.828 1.835 1.835 0 1.017-.838 1.827-1.845 1.827zm1.773 2.282a.363.363 0 01.072.214.385.385 0 01-.383.382.361.361 0 01-.303-.16l-1.275-1.808a.377.377 0 01-.063-.214c0-.196.143-.383.366-.383a.39.39 0 01.321.162l1.265 1.807zm3.52.196c0-.196.116-.268.276-.347.838-.437 1.577-.99 1.577-2.38 0-1.541-.899-2.654-2.005-2.654-1.104 0-2.004 1.113-2.004 2.654 0 1.373.713 1.925 1.568 2.38.17.089.277.15.277.347a.383.383 0 01-.384.4.31.31 0 01-.097-.017c-1.355-.418-2.13-1.81-2.13-3.19 0-1.64 1.095-3.332 2.77-3.332 1.676 0 2.762 1.71 2.762 3.314 0 1.408-.837 2.869-2.129 3.208a.44.44 0 01-.115.018.392.392 0 01-.366-.401m3.235-.079a.406.406 0 01-.17-.33c0-.214.178-.366.382-.366.072 0 .134.019.196.054.08.054.5.366 1.176.366.66 0 1.48-.294 1.48-1.123 0-.882-.937-1.104-1.516-1.31-.802-.284-1.613-.774-1.613-1.755 0-1.024.9-1.577 1.89-1.577.57 0 1.184.187 1.495.454.116.099.162.196.162.303 0 .223-.197.383-.393.383a.38.38 0 01-.214-.072c-.24-.15-.499-.302-.998-.302-.596 0-1.176.223-1.176.802 0 .187.063.739 1.337 1.114.303.088 1.782.499 1.782 1.959 0 1.275-1.132 1.88-2.255 1.88a2.757 2.757 0 01-1.566-.48m4.659.097v-5.774c0-.205.17-.383.383-.383h1.577a2.07 2.07 0 012.067 2.076c0 1.14-.927 2.067-2.067 2.067h-.507a.38.38 0 110-.758h.507a1.314 1.314 0 000-2.628h-1.194v5.399a.38.38 0 01-.383.383.378.378 0 01-.383-.382m4.784-3.947v-1.827a.38.38 0 01.383-.383h2.344c.204 0 .373.169.373.383a.376.376 0 01-.373.375h-1.97v1.452a.379.379 0 11-.757 0m0 3.947v-2.868a.38.38 0 01.383-.384h2.344c.204 0 .373.169.373.384a.376.376 0 01-.373.374h-1.97v2.12h1.97c.204 0 .373.17.373.375a.378.378 0 01-.373.383h-2.344a.386.386 0 01-.383-.384m4.731-.409c-.428-.42-.936-1.185-.936-2.477s.508-2.058.936-2.477c.517-.5 1.211-.793 1.854-.793.757 0 1.586.4 1.854.704a.385.385 0 01-.286.651c-.107 0-.17-.037-.259-.116a2.16 2.16 0 00-1.284-.472c-.819 0-2.048.668-2.048 2.512 0 1.835 1.22 2.503 2.085 2.503.507 0 1.095-.23 1.434-.427a.347.347 0 01.197-.063c.23 0 .391.178.391.393a.358.358 0 01-.16.302c-.33.25-1.237.552-1.916.552-.65 0-1.345-.285-1.862-.792m4.793-4.964a.38.38 0 01-.383-.383.38.38 0 01.383-.383h3.243a.38.38 0 01.383.383.38.38 0 01-.383.383h-3.243zm1.238 5.373v-4.687a.378.378 0 11.757 0v4.688a.379.379 0 11-.757-.001zm2.914-.097a.409.409 0 01-.169-.33c0-.214.178-.366.383-.366a.39.39 0 01.196.054c.081.054.5.366 1.177.366.66 0 1.48-.294 1.48-1.123 0-.882-.937-1.104-1.516-1.31-.802-.285-1.612-.775-1.612-1.756 0-1.024.9-1.577 1.888-1.577.571 0 1.185.187 1.497.454.115.099.161.196.161.303a.393.393 0 01-.392.383.385.385 0 01-.215-.072c-.24-.15-.499-.302-.998-.302-.597 0-1.176.223-1.176.802 0 .187.063.739 1.336 1.114.304.088 1.783.499 1.783 1.959 0 1.275-1.132 1.88-2.254 1.88a2.759 2.759 0 01-1.569-.48" fill="#FFF"/></svg>