<svg version="1.0" xmlns="http://www.w3.org/2000/svg" width="38" height="38" viewBox="0 0 38 38"><path fill="#065683" d="M38 19C38 8.506 29.494 0 19 0 8.508 0 0 8.506 0 19s8.508 19 19 19c10.494 0 19-8.506 19-19zM21.031 9.221c0 .771-.875 1.394-1.645 1.412a7.44 7.44 0 01-.211.009c-.279 0-.547-.091-.781-.243l-.009-.007c-.027-.018-.048-.038-.073-.057-.371-.261-.625-.662-.625-1.118 0-.021.022-.039.023-.06-.001-.021.027-.042.027-.064 0-.854.831-1.546 1.614-1.546s1.681.692 1.681 1.546v.005c0 .021-.006.041-.007.063.001.019.007.037.007.057v.003zm0 19.562c0 .783-.717 1.418-1.5 1.418s-1.5-.635-1.5-1.418V15.488c0-.783.717-1.418 1.5-1.418s1.5.635 1.5 1.418v13.295z"/></svg>