<svg version="1.0" xmlns="http://www.w3.org/2000/svg" width="38" height="38" viewBox="0 0 38 38"><path fill="#A6560A" d="M19 0C8.508 0 0 8.506 0 19s8.508 19 19 19c10.494 0 19-8.506 19-19S29.494 0 19 0zm1.765 28.783c0 .02-.006.038-.007.057.001.021.007.041.007.063v.005c0 .854-.766 1.546-1.548 1.546s-1.481-.692-1.481-1.546c0-.022-.029-.043-.028-.064-.001-.021-.026-.039-.026-.06 0-.456.25-.857.622-1.118.025-.019.038-.039.065-.057.003-.003-.011-.004-.007-.007.233-.152.468-.243.748-.243.026 0 .118.007.145.009.77.019 1.512.641 1.512 1.412v.003zm0-6.271c0 .783-.717 1.418-1.5 1.418s-1.5-.635-1.5-1.418V9.217c0-.783.717-1.418 1.5-1.418s1.5.635 1.5 1.418v13.295z"/></svg>