<?xml version="1.0" encoding="utf-8"?>
<!-- Generator: Adobe Illustrator 16.0.3, SVG Export Plug-In . SVG Version: 6.00 Build 0)  -->
<!DOCTYPE svg PUBLIC "-//W3C//DTD SVG 1.1//EN" "http://www.w3.org/Graphics/SVG/1.1/DTD/svg11.dtd">
<svg version="1.1" id="Layer_1" xmlns="http://www.w3.org/2000/svg" xmlns:xlink="http://www.w3.org/1999/xlink" x="0px" y="0px"
	 width="8.909px" height="5.195px" viewBox="0.686 5.831 8.909 5.195" enable-background="new 0.686 5.831 8.909 5.195"
	 xml:space="preserve">
<path fill="#e10098" d="M0.688,6.571c0-0.077,0.03-0.146,0.089-0.205L1.223,5.92c0.06-0.059,0.127-0.089,0.205-0.089
	c0.077,0,0.146,0.03,0.205,0.089L5.142,9.43L8.65,5.92c0.062-0.059,0.129-0.089,0.205-0.089c0.078,0,0.146,0.03,0.205,0.089
	l0.446,0.446c0.06,0.059,0.089,0.127,0.089,0.205S9.566,6.717,9.506,6.776l-4.161,4.162c-0.06,0.059-0.128,0.088-0.205,0.088
	c-0.078,0-0.146-0.029-0.205-0.088l-4.16-4.162c-0.059-0.06-0.089-0.128-0.089-0.205H0.688z"/>
</svg>
