<?xml version="1.0" standalone="no"?>
<!DOCTYPE svg PUBLIC "-//W3C//DTD SVG 20010904//EN"
 "http://www.w3.org/TR/2001/REC-SVG-20010904/DTD/svg10.dtd">
<svg version="1.0" xmlns="http://www.w3.org/2000/svg"
 width="310.000000pt" height="310.000000pt" viewBox="0 0 310.000000 310.000000"
 preserveAspectRatio="xMidYMid meet">
<metadata>
Created by potrace 1.11, written by Peter Selinger 2001-2013
</metadata>
<g transform="translate(0.000000,310.000000) scale(0.100000,-0.100000)"
fill="#000000" stroke="none">
<path d="M203 3082 c-100 -35 -171 -115 -193 -216 -8 -36 -10 -430 -8 -1346
l3 -1295 28 -57 c32 -64 80 -111 146 -142 l46 -21 1325 0 1325 0 57 28 c64 32
111 80 142 146 l21 46 0 1325 0 1325 -21 46 c-31 66 -78 114 -142 146 l-57 28
-1310 2 c-1237 2 -1313 2 -1362 -15z m1493 -353 c576 -80 1014 -583 1014
-1164 0 -644 -531 -1175 -1175 -1175 -644 0 -1175 531 -1175 1175 0 451 264
867 673 1060 99 47 236 90 332 104 87 12 242 13 331 0z"/>
<path d="M1241 2171 c-21 -21 -21 -26 -21 -606 0 -572 0 -585 20 -605 27 -27
66 -25 95 5 l25 24 0 532 0 532 143 -5 c156 -5 189 -14 251 -68 108 -95 113
-263 11 -365 -53 -53 -115 -75 -215 -75 -63 0 -82 -4 -104 -21 -32 -25 -35
-70 -5 -100 19 -19 30 -20 138 -17 108 3 121 5 182 35 80 39 150 111 187 191
24 51 27 69 27 167 0 101 -2 115 -28 168 -40 80 -112 151 -194 190 l-68 32
-212 3 c-203 4 -212 3 -232 -17z"/>
</g>
</svg>
